<?xml version="1.0" encoding="UTF-8"?>
<svg xmlns="http://www.w3.org/2000/svg" id="Ebene_1" data-name="Ebene 1" viewBox="0 0 792.48 214.97">
  <defs>
    <style>      .cls-1 {        fill: #1d1d1b;      }    </style>
  </defs>
  <polygon class="cls-1" points="257.08 103.66 241.01 131.49 224.94 159.31 192.81 159.31 176.74 131.49 208.87 131.49 224.94 103.66 208.87 75.83 192.81 48 64.27 48 48.2 75.83 32.14 103.66 48.2 131.49 64.27 103.66 160.67 103.66 176.74 131.49 160.67 159.31 144.61 187.14 80.33 187.14 80.34 187.15 64.27 214.97 48.2 187.15 48.21 187.14 64.27 159.31 128.54 159.31 144.61 131.49 80.34 131.49 64.27 159.31 32.14 159.31 16.07 131.49 0 103.66 16.07 75.83 32.14 48 48.2 20.17 208.87 20.17 224.94 48 241.01 75.83 257.08 103.66"></polygon>
  <g>
    <path class="cls-1" d="M381.34,37.16l.03,50.07h-14.73l-.03-50.07c0-.45-.34-.79-.91-.79h-24.7c-.45,0-.68.34-.68.79l.03,50.07h-14.95l-.03-50.07c0-.45-.34-.79-.68-.79h-24.81c-.45,0-.79.34-.79.79l.03,50.07h-14.84l-.04-65.7h81.45c8.61,0,15.64,7.02,15.64,15.63Z"></path>
    <path class="cls-1" d="M403.97,0v14.95s-14.83,0-14.83,0V0s14.83,0,14.83,0ZM389.15,21.52h14.84l.04,65.7h-14.84l-.04-65.7Z"></path>
    <path class="cls-1" d="M476.83,37.16l.03,50.07h-14.84l-.03-50.07c0-.45-.34-.79-.79-.79h-35.46c-.45,0-.79.34-.79.79l.03,50.07h-14.84l-.04-65.7h51.09c8.61,0,15.64,7.02,15.64,15.63Z"></path>
    <path class="cls-1" d="M546.59,0l.06,87.23h-51.2c-8.61,0-15.64-7.02-15.64-15.63l-.02-34.44c0-8.61,7.01-15.63,15.62-15.63h36.36V0s14.83,0,14.83,0ZM531,72.39c.45,0,.79-.34.79-.79l-.02-34.44c0-.45-.34-.79-.79-.79h-35.57c-.45,0-.68.34-.68.79l.02,34.44c0,.45.23.79.68.79h35.57Z"></path>
    <path class="cls-1" d="M351.05,136.57l.02,34.44c0,8.61-7.01,15.63-15.62,15.63h-51.09l-.06-87.23h14.84v21.52h36.26c8.61,0,15.64,7.02,15.64,15.63ZM336.21,136.57c0-.45-.34-.79-.79-.79h-35.46c-.45,0-.79.34-.79.79l.02,34.44c0,.45.34.79.79.79h35.46c.45,0,.79-.34.79-.79l-.02-34.44Z"></path>
    <path class="cls-1" d="M420.6,136.57l.02,24.7h-51.88v9.74c0,.45.35.79.8.79h51.09v14.84s-51.08,0-51.08,0c-8.61,0-15.64-7.02-15.64-15.63l-.02-34.44c0-8.61,7.01-15.63,15.62-15.63h35.46c8.61,0,15.64,7.02,15.64,15.63ZM405.77,146.31v-9.74c0-.45-.35-.79-.8-.79h-35.46c-.45,0-.79.34-.79.79v9.74h37.05Z"></path>
    <path class="cls-1" d="M493.66,136.57l.03,50.07h-14.84l-.03-50.07c0-.45-.34-.79-.79-.79h-35.46c-.45,0-.79.34-.79.79l.03,50.07h-14.84l-.06-87.23h14.84v21.52h36.26c8.5,0,15.64,7.02,15.64,15.63Z"></path>
    <path class="cls-1" d="M511.54,99.41v14.95s-14.83,0-14.83,0v-14.95s14.83,0,14.83,0ZM496.71,120.94h14.84l.04,65.7h-14.84l-.04-65.7Z"></path>
    <path class="cls-1" d="M584.4,136.57l.03,50.07h-14.84l-.03-50.07c0-.45-.34-.79-.79-.79h-35.46c-.45,0-.79.34-.79.79l.03,50.07h-14.84l-.04-65.7h51.09c8.61,0,15.64,7.02,15.64,15.63Z"></path>
    <path class="cls-1" d="M654.15,99.41l.06,87.23h-51.2c-8.61,0-15.64-7.02-15.64-15.63l-.02-34.44c0-8.61,7.01-15.63,15.62-15.63h36.36v-21.52s14.83,0,14.83,0ZM638.57,171.8c.45,0,.79-.34.79-.79l-.02-34.44c0-.45-.34-.79-.79-.79h-35.57c-.45,0-.68.34-.68.79l.02,34.44c0,.45.23.79.68.79h35.57Z"></path>
    <path class="cls-1" d="M690.29,105.08h14.95l.05,81.56h-14.95l-.05-81.56Z"></path>
    <path class="cls-1" d="M792.47,105.08v14.95s-33.18,0-33.18,0l.04,66.61h-15.07l-.04-66.61h-33.3v-14.95s81.55,0,81.55,0Z"></path>
  </g>
</svg>
